# xmcd
# 
# Track frame offsets:
#     150
#     26655
#     45252
# 
# Disc length: 926
# 
# Revision: 0
# Processed by: cddbd v1.5.2PL0 Copyright (c) Steve Scherf et al.
# Submitted via: fre:ac v1.0.17
# 
DISCID=18039c03
DTITLE=Joe Satriani - I believe 
DYEAR=1989
DGENRE=GTR
TTITLE0=I believe (Album Version)
TTITLE1=I believe (Edit)
TTITLE2=Flying in a Blue Dream
EXTD=
EXTT0=
EXTT1=
EXTT2=
PLAYORDER=
